# xmcd
#
# Track frame offsets:
#	182
#	14200
#	29787
#	43185
#	57012
#	71210
#	83632
#	97995
#	111925
#	127967
#
# Disc length: 1910 seconds
#
# Revision: 1
# Processed by: cddbd v1.5.1PL0 Copyright (c) Steve Scherf et al.
# Submitted via: audiograbber 1.83.01
#
DISCID=8b07740a
DTITLE=Shane SUTTON - Shane Sutton
DYEAR=1995
DGENRE=Country
TTITLE0=I've got your number
TTITLE1=If you're gonna leave me
TTITLE2=It's gone
TTITLE3=Sleep tight
TTITLE4=Don't give up on me
TTITLE5=Kiss and tell
TTITLE6=Nashville Cats
TTITLE7=I think that's why I love her
TTITLE8=I'm gonna change her mind
TTITLE9=The color of his love
EXTD=
EXTT0=
EXTT1=
EXTT2=
EXTT3=
EXTT4=
EXTT5=
EXTT6=
EXTT7=
EXTT8=
EXTT9=
PLAYORDER=
